<svg width="1022" height="160" viewBox="0 0 1022 160" fill="none" xmlns="http://www.w3.org/2000/svg">
<g clip-path="url(#clip0_35_8)">
<rect width="1022" height="160" fill="url(#paint0_linear_35_8)"/>
<rect width="1022" height="160" fill="white" fill-opacity="0.2"/>
<path d="M471.695 61.815C471.302 62.8377 470.771 64.3323 470.102 66.299C469.473 68.2263 468.843 70.7437 468.214 73.851H467.034C467.152 73.3003 467.231 72.73 467.27 72.14C467.349 71.55 467.388 71.019 467.388 70.547C467.388 69.013 467.073 67.6757 466.444 66.535C465.854 65.355 464.93 64.4307 463.671 63.762C462.452 63.054 460.878 62.7 458.951 62.7C456.866 62.7 455.096 63.2507 453.641 64.352C452.186 65.414 451.458 67.125 451.458 69.485C451.458 70.9403 451.792 72.317 452.461 73.615C453.169 74.8737 454.054 76.1127 455.116 77.332C456.217 78.512 457.378 79.7117 458.597 80.931C459.816 82.111 460.957 83.3303 462.019 84.589C463.081 85.8477 463.946 87.185 464.615 88.601C465.323 89.9777 465.677 91.492 465.677 93.144C465.677 95.2287 465.166 97.0183 464.143 98.513C463.16 99.9683 461.881 101.168 460.308 102.112C458.735 103.017 457.024 103.685 455.175 104.118C453.366 104.59 451.596 104.826 449.865 104.826C448.095 104.826 446.62 104.688 445.44 104.413C444.299 104.177 443.336 103.843 442.549 103.41C441.762 102.977 440.995 102.545 440.248 102.112C439.855 101.797 439.461 101.581 439.068 101.463C438.714 101.306 438.419 101.227 438.183 101.227C437.672 101.227 437.239 101.483 436.885 101.994C436.57 102.466 436.177 103.272 435.705 104.413H434.525C434.879 103.548 435.253 102.545 435.646 101.404C436.039 100.263 436.472 98.808 436.944 97.038C437.416 95.2287 437.947 92.967 438.537 90.253H439.717C439.56 91.0003 439.422 91.787 439.304 92.613C439.186 93.3997 439.147 94.1863 439.186 94.973C439.304 97.7263 440.15 99.8503 441.723 101.345C443.336 102.84 445.696 103.587 448.803 103.587C451.438 103.587 453.425 103.036 454.762 101.935C456.099 100.794 456.768 99.1423 456.768 96.979C456.768 95.327 456.453 93.8323 455.824 92.495C455.234 91.1183 454.447 89.84 453.464 88.66C452.481 87.48 451.438 86.3197 450.337 85.179C449.236 84.0383 448.193 82.878 447.21 81.698C446.227 80.4787 445.42 79.1807 444.791 77.804C444.162 76.388 443.847 74.8147 443.847 73.084C443.847 71.1173 444.26 69.4063 445.086 67.951C445.951 66.4957 447.053 65.296 448.39 64.352C449.767 63.3687 451.281 62.641 452.933 62.169C454.585 61.6577 456.217 61.402 457.83 61.402C459.954 61.402 461.704 61.6577 463.081 62.169C464.458 62.6803 465.638 63.29 466.621 63.998C467.054 64.2733 467.427 64.5093 467.742 64.706C468.096 64.8633 468.371 64.942 468.568 64.942C469.119 64.942 469.768 63.8997 470.515 61.815H471.695ZM514.775 62.405H518.787C520.478 62.405 522.071 62.3853 523.566 62.346C525.1 62.3067 526.437 62.2673 527.578 62.228L527.283 63.408C525.946 63.4473 524.903 63.6047 524.156 63.88C523.409 64.116 522.819 64.588 522.386 65.296C521.993 65.9647 521.599 67.0267 521.206 68.482L513.418 97.746C513.064 99.162 512.907 100.224 512.946 100.932C513.025 101.64 513.379 102.112 514.008 102.348C514.637 102.584 515.601 102.741 516.899 102.82L516.663 104C515.562 103.921 514.244 103.882 512.71 103.882C511.215 103.843 509.622 103.823 507.931 103.823C506.161 103.823 504.489 103.843 502.916 103.882C501.343 103.882 500.064 103.921 499.081 104L499.317 102.82C500.694 102.741 501.736 102.584 502.444 102.348C503.191 102.112 503.781 101.64 504.214 100.932C504.647 100.224 505.04 99.162 505.394 97.746L513.949 65.945L489.464 104.295H488.166L483.682 67.243L475.894 96.684C475.579 97.9427 475.442 99.0243 475.481 99.929C475.52 100.834 475.894 101.522 476.602 101.994C477.349 102.466 478.549 102.741 480.201 102.82L479.906 104C479.473 103.961 478.883 103.941 478.136 103.941C477.389 103.902 476.602 103.882 475.776 103.882C474.989 103.843 474.242 103.823 473.534 103.823C472.551 103.823 471.548 103.843 470.525 103.882C469.502 103.882 468.657 103.921 467.988 104L468.224 102.82C469.601 102.741 470.682 102.466 471.469 101.994C472.256 101.522 472.885 100.834 473.357 99.929C473.868 99.0243 474.281 97.9427 474.596 96.684L482.089 68.482C482.482 67.0267 482.64 65.9647 482.561 65.296C482.482 64.588 482.128 64.116 481.499 63.88C480.909 63.6047 479.945 63.4473 478.608 63.408L478.903 62.228C479.729 62.2673 480.771 62.3067 482.03 62.346C483.328 62.3853 484.665 62.405 486.042 62.405C486.986 62.405 487.93 62.3853 488.874 62.346C489.818 62.3067 490.644 62.2673 491.352 62.228L494.656 93.97L514.775 62.405ZM533.206 83.586L533.619 82.406H554.446L553.974 83.586H533.206ZM550.198 91.669C550.198 91.669 550.238 91.4723 550.316 91.079C550.395 90.6857 550.434 90.489 550.434 90.489C551.614 90.6463 552.755 91.0003 553.856 91.551C554.958 92.0623 555.862 92.79 556.57 93.734C557.278 94.6387 557.632 95.8383 557.632 97.333C557.632 99.4963 556.905 101.286 555.449 102.702C553.994 104.118 552.027 104.826 549.549 104.826C547.937 104.826 546.521 104.551 545.301 104C544.121 103.449 542.981 102.8 541.879 102.053C540.817 101.266 539.696 100.598 538.516 100.047C537.336 99.4963 535.96 99.221 534.386 99.221C533.049 99.221 531.849 99.398 530.787 99.752C529.765 100.106 528.604 100.578 527.306 101.168C526.441 102.427 525.497 103.39 524.474 104.059C523.452 104.728 522.665 104.806 522.114 104.295C521.642 103.862 521.682 103.213 522.232 102.348C522.783 101.483 524.101 100.657 526.185 99.87L560.405 66.24C558.596 67.656 556.728 68.777 554.8 69.603C552.873 70.429 550.946 70.842 549.018 70.842C547.642 70.842 546.422 70.7043 545.36 70.429C544.298 70.1143 543.295 69.78 542.351 69.426C541.447 69.072 540.522 68.7573 539.578 68.482C538.674 68.1673 537.69 68.01 536.628 68.01C535.645 68.01 534.878 68.2657 534.327 68.777C533.816 69.249 533.56 69.957 533.56 70.901C533.56 71.8057 533.914 72.5727 534.622 73.202C535.33 73.8313 536.392 74.2837 537.808 74.559C537.808 74.559 537.769 74.7557 537.69 75.149C537.612 75.5423 537.572 75.739 537.572 75.739C536.432 75.5423 535.291 75.1883 534.15 74.677C533.049 74.1657 532.144 73.438 531.436 72.494C530.728 71.55 530.374 70.3503 530.374 68.895C530.374 66.7317 531.102 64.942 532.557 63.526C534.013 62.11 535.979 61.402 538.457 61.402C540.07 61.402 541.466 61.6773 542.646 62.228C543.866 62.7787 545.006 63.4473 546.068 64.234C547.17 64.9813 548.31 65.6303 549.49 66.181C550.67 66.7317 552.047 67.007 553.62 67.007C554.958 67.007 556.157 66.83 557.219 66.476C558.281 66.122 559.442 65.65 560.7 65.06C561.605 63.8013 562.549 62.8377 563.532 62.169C564.516 61.5003 565.302 61.4217 565.892 61.933C566.364 62.3263 566.325 62.9753 565.774 63.88C565.224 64.7453 563.906 65.5713 561.821 66.358L527.601 99.988C529.411 98.572 531.279 97.451 533.206 96.625C535.173 95.799 537.1 95.386 538.988 95.386C540.365 95.386 541.584 95.5433 542.646 95.858C543.708 96.1333 544.692 96.448 545.596 96.802C546.54 97.156 547.465 97.4903 548.369 97.805C549.313 98.0803 550.316 98.218 551.378 98.218C552.401 98.218 553.168 97.982 553.679 97.51C554.191 96.9987 554.446 96.271 554.446 95.327C554.446 94.4223 554.092 93.6553 553.384 93.026C552.716 92.3967 551.654 91.9443 550.198 91.669ZM574.757 97.746C574.403 99.162 574.246 100.224 574.285 100.932C574.324 101.64 574.659 102.112 575.288 102.348C575.917 102.584 576.901 102.741 578.238 102.82L578.002 104C576.979 103.921 575.662 103.882 574.049 103.882C572.436 103.843 570.784 103.823 569.093 103.823C567.323 103.823 565.671 103.843 564.137 103.882C562.642 103.882 561.403 103.921 560.42 104L560.715 102.82C562.013 102.741 563.016 102.584 563.724 102.348C564.471 102.112 565.061 101.64 565.494 100.932C565.927 100.224 566.32 99.162 566.674 97.746L574.462 68.482C574.855 67.0267 575.013 65.9647 574.934 65.296C574.855 64.588 574.501 64.116 573.872 63.88C573.282 63.6047 572.318 63.4473 570.981 63.408L571.276 62.228C572.22 62.2673 573.459 62.3067 574.993 62.346C576.527 62.3853 578.179 62.405 579.949 62.405C581.64 62.405 583.273 62.3853 584.846 62.346C586.419 62.3067 587.776 62.2673 588.917 62.228L588.622 63.408C587.285 63.4473 586.242 63.6047 585.495 63.88C584.748 64.116 584.158 64.588 583.725 65.296C583.332 65.9647 582.938 67.0267 582.545 68.482L574.757 97.746Z" fill="black"/>
</g>
<defs>
<linearGradient id="paint0_linear_35_8" x1="0.627514" y1="9.04506e-06" x2="134.864" y2="434.122" gradientUnits="userSpaceOnUse">
<stop stop-color="#F3DEFF"/>
<stop offset="0.504808" stop-color="#FFEAD5"/>
<stop offset="1" stop-color="#FFB3D1"/>
</linearGradient>
<clipPath id="clip0_35_8">
<rect width="1022" height="160" fill="white"/>
</clipPath>
</defs>
</svg>
